PathFileType	4	(X/Y/Z)	./resultDataOpenSim/trcMotMarkerGrf/sub06/qtm-04-08.trc
DataRate	CameraRate	NumFrames	NumMarkers	Units	OrigDataRate	OrigDataStartFrame	OrigNumFrames
250.000000	250.000000	12	24	m	250.000000	266	531
Frame#	Time	L.Toe.Tip			R.Toe.Tip			L.Ankle.Lat			R.Ankle.Lat			L.Ankle.Med			R.Ankle.Med			L.Heel			R.Heel			L.Knee.Lat			R.Knee.Lat			L.Knee.Med			R.Knee.Med			L.Thigh.Upper			R.Thigh.Upper			L.ASIS			R.ASIS			V.Sacral			L.Acromium			R.Acromium			C7			L.Elbow			R.Elbow			L.Wrist.Lat			R.Wrist.Lat
		X1	Y1	Z1	X2	Y2	Z2	X3	Y3	Z3	X4	Y4	Z4	X5	Y5	Z5	X6	Y6	Z6	X7	Y7	Z7	X8	Y8	Z8	X9	Y9	Z9	X10	Y10	Z10	X11	Y11	Z11	X12	Y12	Z12	X13	Y13	Z13	X14	Y14	Z14	X15	Y15	Z15	X16	Y16	Z16	X17	Y17	Z17	X18	Y18	Z18	X19	Y19	Z19	X20	Y20	Z20	X21	Y21	Z21	X22	Y22	Z22	X23	Y23	Z23	X24	Y24	Z24

266	1.06	0.11668345	-0.040355477	0.011720402	0.63363	0.10993936	0.14960049	-0.0050971245	0.0075190132	-0.0066227729	0.49818938	0.10006653	0.16654956	0.0054298618	0.027640955	0.07855623	0.5172889	0.12944713	0.080698087	-0.076738817	-0.0098161158	0.046225864	0.45550142	0.064592467	0.10191719	0.097671609	0.36220743	-0.043503054	0.47432599	0.49064593	0.19181658	0.08507889	0.36835275	0.07863117	0.45704006	0.47095482	0.070721244	0.18429628	0.73862201	-0.12394464	0.2078788	0.75640918	0.22589826	0.26692787	0.78495659	-0.085996199	0.28880497	0.80589155	0.15666132	0.089685441	0.86645962	0.051984511	0.24677947	1.2736983	-0.14376488	0.21376928	1.2606047	0.21649724	0.15543146	1.3062826	0.028437206	0.25012586	0.94958922	-0.22316652	0.069977012	0.98211203	0.27905932	0.4797609	0.86621574	-0.1508757	0.1455924	0.76298756	0.34963591
267	1.064	0.11673784	-0.040487424	0.01176235	0.65014469	0.11130913	0.14824333	-0.0046942155	0.0077360583	-0.0068862596	0.51557917	0.098339962	0.16514452	0.0057375312	0.027766524	0.078448003	0.5333525	0.12898574	0.07964559	-0.076624083	-0.0091575797	0.045913806	0.47283865	0.062842	0.10062412	0.10082343	0.36170076	-0.04354025	0.48071844	0.48865095	0.19178386	0.088469743	0.36775668	0.078581712	0.46359824	0.4687084	0.070498628	0.18834375	0.737434	-0.12387684	0.21644357	0.75468254	0.22553292	0.27175155	0.78361359	-0.086433615	0.29548163	0.80473016	0.15619264	0.095625485	0.86515278	0.0531676	0.25270803	1.2722924	-0.14381393	0.219855	1.2590764	0.21667639	0.16154307	1.3051726	0.028560439	0.25833357	0.94812283	-0.2226432	0.07518946	0.98110996	0.27876459	0.48817467	0.86723945	-0.14951309	0.14886449	0.76151659	0.34964926
268	1.068	0.11678227	-0.040595356	0.011802598	0.66623121	0.11262077	0.14685001	-0.0043159076	0.0079697691	-0.0070736806	0.53243805	0.096860544	0.16373907	0.0060960557	0.027872607	0.078298887	0.54898133	0.12867518	0.078580924	-0.076499935	-0.0084921524	0.045572105	0.48967669	0.061427832	0.099207684	0.10420899	0.36116415	-0.043605286	0.48701577	0.48649081	0.19169657	0.091894332	0.36711547	0.078538017	0.47010923	0.46634316	0.070233217	0.19238984	0.73623544	-0.12379663	0.22499972	0.75298913	0.22524293	0.27658593	0.78224809	-0.086859958	0.30216833	0.80349689	0.15571289	0.10151669	0.86392935	0.054256675	0.25865179	1.2708604	-0.14386415	0.22596263	1.2575202	0.216857	0.16767624	1.3040402	0.028692487	0.26664449	0.94664699	-0.22186554	0.08046059	0.98005613	0.27849888	0.49653212	0.86815693	-0.14817385	0.15226535	0.76009026	0.34968926
269	1.072	0.11681487	-0.040675865	0.011833348	0.68182916	0.11386109	0.14547632	-0.0039956301	0.0082436606	-0.007151045	0.54852914	0.095754224	0.16241265	0.0064966825	0.02796956	0.07812777	0.56410395	0.1285188	0.077505983	-0.076360238	-0.0078031049	0.045211192	0.505982	0.060305955	0.097701942	0.10771504	0.36060562	-0.043680789	0.49322014	0.48419232	0.1915417	0.095374077	0.36645507	0.078505272	0.47656564	0.4638924	0.069916282	0.1964517	0.73503382	-0.12367932	0.23344117	0.75141606	0.22509231	0.28143254	0.78086487	-0.087286942	0.30884971	0.80219399	0.15521432	0.10737619	0.86279024	0.055383123	0.26460472	1.2694084	-0.14391717	0.23209178	1.2559459	0.2170426	0.17381892	1.3028926	0.028840533	0.27498312	0.9451597	-0.22098018	0.085785263	0.97895878	0.27826316	0.50483221	0.86897033	-0.14685797	0.15581438	0.75870688	0.34976483
270	1.076	0.1168345	-0.040741282	0.011857846	0.69687028	0.11501194	0.14417681	-0.0037323024	0.008555408	-0.0071392231	0.56386545	0.094938	0.16114736	0.0068919478	0.028090758	0.077994488	0.57868061	0.1285062	0.076441325	-0.076204091	-0.0070702358	0.044859351	0.52171006	0.059424759	0.096154135	0.11118493	0.36002747	-0.043720654	0.49937438	0.48180111	0.19133231	0.098952053	0.36579843	0.078475149	0.48294667	0.46138168	0.069526041	0.20054843	0.733834	-0.12350243	0.24165766	0.75001237	0.22511833	0.28629628	0.77946929	-0.08771624	0.31551796	0.80082436	0.1546957	0.11330402	0.86170595	0.056531953	0.2705644	1.2679443	-0.14397028	0.23823873	1.2543604	0.21723113	0.17996322	1.3017319	0.029005259	0.28327811	0.94366574	-0.22012807	0.09115902	0.97783021	0.27805375	0.51307262	0.86968138	-0.14557059	0.15951537	0.75734686	0.34987448
271	1.08	0.11684005	-0.04080121	0.011880783	0.71131255	0.1160539	0.14296441	-0.0034750146	0.0088860563	-0.0071166143	0.57849474	0.094295117	0.15990629	0.0072431415	0.028275673	0.077947317	0.59268364	0.12860703	0.075412755	-0.07603822	-0.0062838237	0.044563143	0.53680985	0.058733312	0.094602033	0.11453435	0.35943409	-0.0436852	0.50551597	0.47936101	0.19107955	0.10264667	0.36515634	0.078441345	0.48924485	0.45882809	0.069033641	0.20469855	0.73264256	-0.12325434	0.24955613	0.74874694	0.22529789	0.29118907	0.77807099	-0.088143649	0.32219194	0.79939515	0.15416866	0.11943867	0.86061975	0.057608959	0.27653279	1.2664784	-0.14401623	0.24439841	1.2527693	0.2174181	0.18611078	1.3005581	0.029178128	0.29149496	0.94217197	-0.21937557	0.096580961	0.9766819	0.27787268	0.5212483	0.87028609	-0.14432012	0.16337614	0.75598557	0.35001643
272	1.084	0.11683379	-0.040859095	0.01190377	0.72513865	0.11697335	0.14181816	-0.0031611288	0.0092251781	-0.0071634273	0.59241465	0.093756662	0.15867189	0.0075708126	0.02853248	0.07796199	0.60608009	0.12877709	0.074444491	-0.075867206	-0.0054412821	0.044354436	0.55122984	0.058183029	0.093077203	0.11777935	0.35883928	-0.043566287	0.5116596	0.47690318	0.19078581	0.10646333	0.36452719	0.078403875	0.4954866	0.45625455	0.068421258	0.20891839	0.73146677	-0.1229468	0.25710071	0.74750889	0.22554068	0.29612443	0.77668676	-0.088566157	0.3289351	0.79792799	0.15366521	0.12585308	0.85947454	0.058550426	0.28251507	1.2650212	-0.14404851	0.25056862	1.2511793	0.21760331	0.19226997	1.2993739	0.029349522	0.29962928	0.94068472	-0.21872687	0.10204818	0.97552436	0.2777254	0.52935612	0.87077879	-0.14311383	0.16741084	0.75460303	0.35019243
273	1.088	0.1168218	-0.040915173	0.011926052	0.73832257	0.1177658	0.14071131	-0.0027628396	0.0095818378	-0.0073050203	0.60559452	0.093286559	0.15744779	0.0079275571	0.028838954	0.077965887	0.61883901	0.12896579	0.073560904	-0.075679961	-0.0045356126	0.044204093	0.56492776	0.057726599	0.091606959	0.12100587	0.35825789	-0.04339798	0.51780543	0.474449	0.19044961	0.11041432	0.36389932	0.078368135	0.50172817	0.45370159	0.067709665	0.21322406	0.73030893	-0.12260779	0.26434514	0.74619516	0.22574389	0.30111219	0.77533849	-0.088984673	0.3358348	0.79646117	0.15323348	0.13241616	0.85827247	0.059410423	0.28851637	1.2635811	-0.14406372	0.25674739	1.2495993	0.21778958	0.19844904	1.2981854	0.029518792	0.30768754	0.93920946	-0.21816323	0.10756334	0.97436088	0.27761083	0.53739809	0.87115978	-0.14195325	0.1716168	0.75319506	0.35040032
274	1.092	0.11680923	-0.040968014	0.011945992	0.75081425	0.11843143	0.1396189	-0.0022904458	0.0099806253	-0.0075105859	0.6180055	0.092854354	0.1562483	0.0083376842	0.029175476	0.077911444	0.63094237	0.12912356	0.072774025	-0.075455963	-0.0035569718	0.044044483	0.57786934	0.057314523	0.090211959	0.12433934	0.35769104	-0.043250979	0.52395377	0.47202195	0.19006899	0.11452125	0.36325215	0.078346507	0.5080223	0.45121984	0.066950612	0.21763182	0.72916999	-0.12225404	0.27141218	0.7448074	0.22585999	0.30615568	0.77404129	-0.089402375	0.3428969	0.79502016	0.15288336	0.13885861	0.85709017	0.060314949	0.29453751	1.2621635	-0.14406165	0.26293386	1.2480378	0.21798055	0.20465153	1.2969994	0.029697792	0.3156758	0.93775122	-0.21766628	0.11313913	0.97319014	0.27752009	0.54537596	0.87143495	-0.14083375	0.17595507	0.7517772	0.35062797
275	1.096	0.11679724	-0.041016337	0.011962328	0.76256054	0.11897006	0.13851954	-0.0017721026	0.010447557	-0.0077308908	0.62963954	0.092422944	0.15508544	0.0088071796	0.029545899	0.077805398	0.64237933	0.1292045	0.072059967	-0.075185032	-0.0025008681	0.043841402	0.59002098	0.056894502	0.088906718	0.12787421	0.35712903	-0.043181057	0.53011199	0.46965848	0.18963629	0.11879564	0.36257627	0.078347226	0.51438227	0.44885242	0.066174832	0.2221536	0.72805724	-0.12188246	0.27841548	0.74343044	0.22589774	0.31125066	0.772788	-0.089833337	0.34992944	0.793574	0.15251813	0.14505795	0.85598975	0.061315878	0.3005723	1.2607739	-0.14404434	0.26913367	1.2465022	0.21818153	0.21087781	1.2958216	0.029903436	0.32359699	0.9363151	-0.21722373	0.11878753	0.97201531	0.27744963	0.55328742	0.87161157	-0.13974845	0.18037968	0.75037174	0.35085976
276	1.1	0.11678506	-0.041060498	0.011974977	0.77352956	0.11937967	0.13740488	-0.0012348012	0.010992694	-0.0079330574	0.64051159	0.091949817	0.15396472	0.009361853	0.029976408	0.077684684	0.65313456	0.12915705	0.071375756	-0.074870093	-0.0013666383	0.043607896	0.6013508	0.05641495	0.087699222	0.13161331	0.35656347	-0.043180903	0.53629205	0.46740701	0.18913162	0.12321155	0.36191528	0.078339339	0.52078716	0.44662808	0.06536959	0.22679177	0.72697968	-0.12148651	0.28541394	0.74212017	0.22588741	0.31638889	0.77154269	-0.090316747	0.35665569	0.79205586	0.15199021	0.1512054	0.85493662	0.062346646	0.30661137	1.2594202	-0.14400983	0.27535648	1.2449989	0.2183961	0.21712895	1.2946555	0.030142986	0.33145204	0.93490637	-0.21682719	0.12451513	0.97084096	0.277405	0.56112915	0.87169488	-0.13869334	0.18488582	0.74899542	0.35108959
277	1.104	0.11677105	-0.041102759	0.011984617	0.78371084	0.11965378	0.13627833	-0.00068897199	0.011610766	-0.0081104857	0.65063998	0.091398384	0.15288824	0.010000092	0.030484596	0.07756964	0.66318263	0.12892621	0.070687852	-0.07451443	-0.00014930287	0.04336525	0.6118378	0.055829177	0.086586904	0.13550076	0.35599522	-0.043209549	0.54250383	0.46531731	0.18852552	0.12770056	0.36135806	0.078258092	0.52721228	0.44456887	0.064507614	0.23154247	0.72594215	-0.12106709	0.29246449	0.7408509	0.22588314	0.32156624	0.77026653	-0.09089169	0.36305628	0.79045998	0.1512851	0.15769171	0.85382867	0.063293099	0.31265177	1.2581118	-0.14395051	0.28161287	1.2435352	0.21862302	0.22340611	1.2935029	0.030411385	0.33924154	0.93353031	-0.21646922	0.13032619	0.9696691	0.27738398	0.56889981	0.87168601	-0.13766821	0.18950964	0.74765978	0.35132492
